<?xml version="1.0" encoding="utf-8"?>
<!-- Generator: Adobe Illustrator 19.0.0, SVG Export Plug-In . SVG Version: 6.00 Build 0)  -->
<svg version="1.1" id="FOE_Logo_On_Light_Transparent_Horizontal"
	 xmlns="http://www.w3.org/2000/svg" xmlns:xlink="http://www.w3.org/1999/xlink" x="0px" y="0px" viewBox="0 0 275 110.1"
	 style="enable-background:new 0 0 275 110.1;" xml:space="preserve">
<style type="text/css">
	.st0{fill-rule:evenodd;clip-rule:evenodd;fill:#FFFFFF;}
	.st1{fill:#FFFFFF;}
</style>
<path class="st0" d="M83,18.3C79.9,14.9,73,7.4,53.6,7.4C36.4,7.4,10.4,17.8,8.1,49C5.9,77.9,32.3,98.3,53.1,98.3S98.1,79,98.1,54.7
	c0-16.1-11.5-25.8-12-27C85.5,26.5,86.2,21.6,83,18.3z M60.6,25.5C41,26,28.2,42.3,28.7,56.1c0.4,13.4,9.1,28.1,25.4,28.1
	c16.4,0,33.6-15.8,33.6-32.5c0-5.3-1.4-10-3.8-13.8c-4-6.5-8.5-6.8-11.5-8.2C69.7,28.5,66.5,25.4,60.6,25.5z"/>
<g>
	<path class="st1" d="M115.9,28.3c0.1-0.1,0.2-0.2,0.4-0.2h15.5c0.3,0,0.5,0.2,0.5,0.6l0,3.1c0,0.5-0.2,0.7-0.7,0.7h-9.1
		c-0.2,0-0.4,0-0.5,0.1c-0.1,0.1-0.1,0.2-0.1,0.4v3.7c0,0.4,0.2,0.6,0.5,0.6h6c0.4,0,0.6,0.2,0.6,0.5v3.3c0,0.3-0.2,0.4-0.5,0.4
		h-6.1c-0.3,0-0.4,0.1-0.4,0.4v7.6c0,0.3-0.1,0.5-0.2,0.6c-0.1,0.1-0.4,0.2-0.7,0.2h-4.4c-0.3,0-0.5-0.1-0.6-0.2
		c-0.1-0.1-0.2-0.3-0.2-0.5V28.8C115.8,28.6,115.8,28.4,115.9,28.3z"/>
	<path class="st1" d="M133.1,50.2c-0.1-0.1-0.1-0.3-0.1-0.5V35.1c0-0.4,0.2-0.6,0.5-0.6h4.1c0.1,0,0.3,0.1,0.3,0.2
		c0.1,0.1,0.1,0.2,0.1,0.4v1.7c0,0.2,0.1,0.3,0.2,0.3c0.1,0,0.2-0.1,0.3-0.2c0.5-0.8,1.2-1.4,2.1-1.9c0.8-0.5,1.6-0.8,2.3-0.8
		c0.7,0,1.1,0.2,1.1,0.6v4c0,0.4-0.2,0.5-0.5,0.5c-0.8-0.2-1.6-0.3-2.3-0.3c-0.7,0-1.4,0.2-2,0.7c-0.6,0.5-0.9,1-0.9,1.6v8.4
		c0,0.3-0.1,0.5-0.2,0.6c-0.1,0.1-0.4,0.2-0.7,0.2h-3.7C133.4,50.4,133.2,50.3,133.1,50.2z"/>
	<path class="st1" d="M151.9,32.1c0,0.3-0.1,0.5-0.2,0.6c-0.1,0.1-0.4,0.2-0.7,0.2h-3.8c-0.3,0-0.4-0.1-0.6-0.2s-0.2-0.3-0.2-0.5
		v-3.4c0-0.2,0-0.4,0.1-0.5c0.1-0.1,0.2-0.2,0.4-0.2h4.3c0.2,0,0.3,0.1,0.4,0.2c0.1,0.1,0.1,0.3,0.1,0.4V32.1z M151.8,49.6
		c0,0.3-0.1,0.5-0.2,0.6s-0.4,0.2-0.7,0.2h-3.7c-0.3,0-0.5-0.1-0.6-0.2c-0.1-0.1-0.2-0.3-0.2-0.5V35.1c0-0.4,0.2-0.6,0.5-0.6h4.3
		c0.3,0,0.5,0.2,0.5,0.6V49.6z"/>
	<path class="st1" d="M160.8,46.3c0.7,0.6,1.5,0.9,2.5,0.9c0.6,0,1.2-0.1,1.8-0.4c0.5-0.3,1.1-0.8,1.8-1.4c0.1-0.1,0.2-0.1,0.3-0.1
		c0.1,0,0.2,0,0.3,0.1l2.5,1c0.2,0.1,0.3,0.2,0.3,0.3c0,0.1,0,0.2-0.1,0.3c-1,1.4-2.1,2.4-3.2,3c-1.1,0.5-2.5,0.8-4.2,0.8
		c-1.6,0-3-0.3-4.2-1c-1.3-0.7-2.3-1.6-3-2.8c-0.7-1.2-1.1-2.6-1.1-4.2c0-1.7,0.4-3.1,1.1-4.4c0.7-1.3,1.7-2.3,3-3
		c1.2-0.7,2.6-1.1,4.1-1.1c1.6,0,2.9,0.3,4.1,1c1.2,0.7,2.1,1.6,2.8,2.9c0.7,1.3,1,2.8,1,4.6c0,0.3,0,0.5-0.1,0.6
		c-0.1,0.1-0.2,0.2-0.4,0.2h-9.8c-0.3,0-0.4,0.2-0.4,0.5C159.8,44.9,160.2,45.7,160.8,46.3z M164.8,40.6c0.2,0,0.3,0,0.4-0.1
		c0.1,0,0.1-0.2,0.1-0.3c0-0.7-0.2-1.3-0.7-1.9c-0.4-0.6-1.1-0.9-1.9-0.9c-0.8,0-1.5,0.3-2.1,0.9c-0.5,0.6-0.8,1.4-0.8,2.3
		L164.8,40.6z"/>
	<path class="st1" d="M173.1,50.2c-0.1-0.1-0.2-0.3-0.2-0.5V35.1c0-0.4,0.2-0.6,0.5-0.6h4.3c0.3,0,0.5,0.2,0.5,0.5v1.4
		c0,0.2,0,0.2,0.1,0.2c0.1,0,0.1,0,0.2-0.1c1.6-1.6,3.2-2.4,4.9-2.4c1.4,0,2.6,0.4,3.4,1.3c0.9,0.9,1.3,2,1.3,3.5v10.6
		c0,0.5-0.3,0.8-0.8,0.8h-3.9c-0.2,0-0.4,0-0.5-0.2c-0.1-0.1-0.1-0.3-0.1-0.5v-10c0-0.5-0.2-1-0.5-1.3c-0.3-0.3-0.8-0.5-1.4-0.5
		c-0.5,0-1,0.1-1.5,0.4c-0.4,0.3-0.9,0.7-1.3,1.3v9.9c0,0.3-0.1,0.5-0.2,0.6s-0.4,0.2-0.7,0.2h-3.7
		C173.4,50.4,173.2,50.3,173.1,50.2z"/>
	<path class="st1" d="M201.5,49.8V49c0-0.1,0-0.1-0.1-0.2c0,0-0.1-0.1-0.1-0.1c-0.1,0-0.1,0-0.3,0.1c-0.6,0.6-1.2,1-1.9,1.3
		c-0.7,0.3-1.5,0.5-2.4,0.5c-1.8,0-3.3-0.7-4.4-2.1c-1.1-1.4-1.7-3.4-1.7-6.1c0-1.6,0.3-3.1,0.9-4.3s1.4-2.2,2.3-2.9
		c1-0.7,2-1,3.2-1c0.8,0,1.4,0.1,2,0.4c0.6,0.2,1.2,0.6,1.8,1.2c0.1,0.1,0.2,0.2,0.4,0.2c0.1,0,0.2-0.1,0.2-0.4v-6.8
		c0-0.4,0.2-0.6,0.5-0.6h4.3c0.4,0,0.5,0.2,0.5,0.6v20.9c0,0.2-0.1,0.4-0.2,0.5c-0.1,0.1-0.3,0.2-0.6,0.2h-3.8
		C201.7,50.4,201.5,50.2,201.5,49.8z M200.2,37.9c-0.4-0.2-0.8-0.3-1.3-0.3c-0.9,0-1.6,0.4-2.1,1.2c-0.5,0.8-0.8,2-0.8,3.8
		c0,1.7,0.2,3,0.7,3.8c0.5,0.8,1.2,1.2,2.1,1.2c0.7,0,1.3-0.2,1.8-0.7c0.5-0.4,0.7-1,0.7-1.6v-6.3C201,38.4,200.6,38.1,200.2,37.9z"
		/>
	<path class="st1" d="M216.5,37.3c-0.6,0-1.2,0.1-1.6,0.4c-0.4,0.2-0.6,0.6-0.6,1c0,0.2,0.1,0.4,0.3,0.6c0.2,0.2,0.6,0.3,1.1,0.5
		l3.3,0.8c1.7,0.4,2.9,1,3.7,1.9c0.8,0.9,1.2,1.9,1.2,3.1c0,1.6-0.7,2.9-2,3.9c-1.4,0.9-3.1,1.4-5.4,1.4c-1.8,0-3.3-0.3-4.6-0.9
		c-1.3-0.6-2.2-1.4-2.7-2.4c-0.1-0.2-0.2-0.3-0.2-0.5c0-0.2,0.1-0.3,0.2-0.4l2.3-1.2c0.2-0.1,0.3-0.1,0.4-0.1c0.2,0,0.3,0.1,0.4,0.2
		c0.5,0.6,1,1.1,1.6,1.4c0.6,0.3,1.4,0.5,2.4,0.5c0.8,0,1.5-0.1,2-0.4c0.5-0.2,0.8-0.6,0.8-1c0-0.3-0.1-0.5-0.4-0.7
		c-0.3-0.2-0.7-0.4-1.3-0.5l-3.1-0.6c-3.2-0.6-4.7-2.2-4.7-4.7c0-1,0.3-1.9,0.8-2.7c0.6-0.8,1.4-1.4,2.4-1.9
		c1.1-0.4,2.3-0.7,3.8-0.7c1.5,0,2.8,0.3,4,0.8c1.2,0.6,2,1.2,2.5,2c0.1,0.2,0.2,0.4,0.2,0.5s-0.1,0.2-0.2,0.3l-2.5,1.2
		c-0.1,0.1-0.2,0.1-0.3,0.1c-0.2,0-0.3-0.1-0.5-0.3C219,37.8,217.9,37.3,216.5,37.3z"/>
	<path class="st1" d="M235.9,49.7c-1.2-0.7-2.2-1.7-2.9-2.9s-1-2.7-1-4.2c0-1.6,0.4-3.1,1.1-4.3c0.7-1.3,1.7-2.3,2.9-3
		c1.3-0.7,2.7-1,4.2-1c1.6,0,3.1,0.4,4.3,1.1c1.2,0.7,2.2,1.7,2.9,3c0.7,1.3,1,2.7,1,4.3c0,1.6-0.4,3-1.1,4.2
		c-0.7,1.2-1.7,2.2-2.9,2.9c-1.3,0.7-2.7,1-4.3,1C238.6,50.7,237.2,50.3,235.9,49.7z M242.4,46c0.5-0.8,0.7-2,0.7-3.6
		c0-1.6-0.2-2.9-0.7-3.7s-1.2-1.2-2.1-1.2c-0.9,0-1.6,0.4-2.1,1.2c-0.5,0.8-0.7,2-0.7,3.7c0,1.6,0.2,2.8,0.7,3.6
		c0.5,0.8,1.2,1.2,2.1,1.2C241.2,47.2,241.9,46.8,242.4,46z"/>
	<path class="st1" d="M260.6,34.7c0.1,0.1,0.2,0.3,0.2,0.4v2.5c0,0.3-0.2,0.5-0.6,0.5H258c-0.2,0-0.3,0.1-0.3,0.4v11.3
		c0,0.4-0.2,0.6-0.5,0.6h-4.3c-0.3,0-0.5-0.2-0.5-0.6V38.4c0-0.2-0.1-0.3-0.2-0.3h-1.9c-0.2,0-0.4,0-0.5-0.1s-0.2-0.2-0.2-0.4v-2.5
		c0-0.4,0.2-0.6,0.7-0.6h1.7c0.1,0,0.2,0,0.3-0.1s0.1-0.2,0.1-0.4v-1.7c0-1.3,0.4-2.3,1.2-3.1c0.8-0.7,1.9-1.1,3.3-1.1h3.2
		c0.3,0,0.5,0.1,0.6,0.2c0.1,0.1,0.2,0.3,0.2,0.5v2.3c0,0.2,0,0.3-0.1,0.4c-0.1,0.1-0.2,0.2-0.4,0.2H259c-0.4,0-0.7,0.2-1,0.5
		c-0.3,0.3-0.4,0.7-0.4,1.2v0.8c0,0.2,0.1,0.4,0.4,0.4h2.2C260.3,34.5,260.5,34.5,260.6,34.7z"/>
</g>
<g>
	<path class="st1" d="M122.9,71.1c-0.2,0-0.4,0.1-0.4,0.4V78c0,0.6,0.2,1,0.5,1.3c0.3,0.3,0.9,0.4,1.6,0.4h1.4
		c0.1,0,0.3,0.1,0.3,0.2c0.1,0.1,0.1,0.2,0.1,0.4l0,2.2c0,0.4-0.3,0.7-0.8,0.8c-0.9,0.1-2.2,0.2-3.8,0.2c-1.4,0-2.6-0.3-3.4-1
		s-1.3-1.7-1.3-2.9v-7.8c0-0.2,0-0.3-0.1-0.4c-0.1-0.1-0.2-0.1-0.3-0.1h-1.6c-0.4,0-0.7-0.2-0.7-0.6V68c0-0.3,0.2-0.5,0.6-0.5h1.9
		c0.2,0,0.3-0.1,0.3-0.3l0.5-4.5c0-0.2,0.1-0.3,0.1-0.4c0.1-0.1,0.2-0.1,0.4-0.1h3.8c0.4,0,0.5,0.2,0.5,0.6v4.5
		c0,0.2,0.1,0.3,0.3,0.3h3c0.2,0,0.3,0,0.4,0.1s0.2,0.2,0.2,0.4v2.5c0,0.4-0.2,0.6-0.7,0.6H122.9z"/>
	<path class="st1" d="M129.3,83.2c-0.1-0.1-0.2-0.3-0.2-0.5V61.8c0-0.4,0.2-0.6,0.5-0.6h4.2c0.3,0,0.5,0.2,0.5,0.6v7.6
		c0,0.1,0,0.2,0.1,0.2c0.1,0,0.1,0,0.2-0.1c0.9-0.8,1.7-1.4,2.5-1.7c0.8-0.3,1.6-0.5,2.5-0.5c1.5,0,2.7,0.4,3.5,1.3
		c0.8,0.9,1.2,2.1,1.2,3.6v10.5c0,0.5-0.3,0.8-0.8,0.8h-3.9c-0.2,0-0.4,0-0.5-0.2c-0.1-0.1-0.1-0.3-0.1-0.5v-10c0-0.5-0.2-1-0.5-1.3
		c-0.3-0.3-0.8-0.5-1.4-0.5c-0.5,0-1,0.1-1.5,0.4c-0.4,0.3-0.9,0.7-1.3,1.3v9.9c0,0.3-0.1,0.5-0.2,0.6c-0.1,0.1-0.4,0.2-0.7,0.2
		h-3.8C129.6,83.4,129.4,83.3,129.3,83.2z"/>
	<path class="st1" d="M153.2,79.3c0.7,0.6,1.5,0.9,2.5,0.9c0.6,0,1.2-0.1,1.8-0.4c0.5-0.3,1.1-0.8,1.8-1.4c0.1-0.1,0.2-0.1,0.3-0.1
		s0.2,0,0.3,0.1l2.5,1c0.2,0.1,0.3,0.2,0.3,0.3c0,0.1,0,0.2-0.1,0.3c-1,1.4-2.1,2.4-3.2,3s-2.5,0.8-4.2,0.8c-1.6,0-3-0.3-4.2-1
		s-2.3-1.6-3-2.8c-0.7-1.2-1.1-2.6-1.1-4.2c0-1.7,0.4-3.1,1.1-4.4c0.7-1.3,1.7-2.3,3-3s2.6-1.1,4.1-1.1c1.6,0,2.9,0.3,4.1,1
		c1.2,0.7,2.1,1.6,2.8,2.9c0.7,1.3,1,2.8,1,4.6c0,0.3,0,0.5-0.1,0.6c-0.1,0.1-0.2,0.2-0.4,0.2h-9.8c-0.3,0-0.4,0.2-0.4,0.5
		C152.2,77.9,152.6,78.7,153.2,79.3z M157.2,73.6c0.2,0,0.3,0,0.4-0.1c0.1,0,0.1-0.2,0.1-0.3c0-0.7-0.2-1.3-0.7-1.9
		c-0.5-0.6-1.1-0.9-1.9-0.9c-0.8,0-1.5,0.3-2.1,0.9c-0.5,0.6-0.8,1.4-0.8,2.3L157.2,73.6z"/>
	<path class="st1" d="M172.6,61.1h15.7c0.3,0,0.5,0.2,0.5,0.6v3.1c0,0.2-0.1,0.4-0.2,0.5s-0.3,0.2-0.5,0.2h-9.3
		c-0.4,0-0.6,0.2-0.6,0.5v3.4c0,0.2,0,0.3,0.1,0.4c0.1,0.1,0.2,0.2,0.3,0.2h5.8c0.4,0,0.6,0.2,0.6,0.5v3.3c0,0.3-0.2,0.5-0.5,0.5h-6
		c-0.3,0-0.5,0.1-0.5,0.4v3.8c0,0.1,0,0.2,0.1,0.3s0.1,0.1,0.3,0.1h10c0.2,0,0.3,0,0.5,0.1c0.1,0.1,0.1,0.2,0.1,0.4v3.3
		c0,0.4-0.2,0.6-0.6,0.6h-15.6c-0.3,0-0.4-0.1-0.6-0.2c-0.1-0.1-0.2-0.3-0.2-0.5V61.8C172.1,61.3,172.3,61.1,172.6,61.1z"/>
	<path class="st1" d="M196,83.7c-1.5,0-2.7-0.4-3.5-1.2c-0.9-0.8-1.3-1.9-1.3-3.2c0-1.1,0.4-2.1,1.1-3s1.8-1.5,3.1-2
		c1.3-0.5,2.9-0.7,4.8-0.8l0.6,0c0.3,0,0.5-0.1,0.5-0.4v-0.6c0-0.7-0.2-1.2-0.6-1.5c-0.4-0.4-0.9-0.5-1.6-0.5
		c-0.6,0-1.1,0.1-1.5,0.4c-0.5,0.3-0.9,0.7-1.2,1.2c-0.1,0.1-0.1,0.2-0.2,0.3c-0.1,0.1-0.1,0.1-0.3,0.1c-0.1,0-0.2,0-0.3,0l-3.5-0.7
		c-0.2,0-0.3-0.2-0.3-0.4c0-0.1,0-0.3,0.1-0.5c0.9-2.4,3.4-3.5,7.3-3.5c2.5,0,4.3,0.4,5.4,1.3c1.1,0.9,1.6,2.1,1.6,3.7v10.5
		c0,0.3,0,0.5-0.1,0.6c-0.1,0.1-0.3,0.2-0.5,0.2H202c-0.2,0-0.4-0.1-0.5-0.2c-0.1-0.2-0.2-0.4-0.2-0.7l0-0.5c0-0.2-0.1-0.3-0.2-0.3
		c-0.1,0-0.3,0.1-0.5,0.3C199.2,83.1,197.7,83.7,196,83.7z M201.1,76.1c-0.1-0.1-0.2-0.1-0.3-0.1l-0.5,0c-0.5,0-1.1,0.1-1.7,0.3
		c-0.6,0.2-1.1,0.5-1.6,0.9c-0.4,0.4-0.6,0.9-0.6,1.4c0,0.5,0.2,0.9,0.6,1.2c0.4,0.3,0.9,0.5,1.5,0.5c0.7,0,1.4-0.2,2-0.7
		c0.6-0.5,0.8-0.9,0.8-1.3v-1.8C201.2,76.3,201.1,76.2,201.1,76.1z"/>
	<path class="st1" d="M209.4,83.2c-0.1-0.1-0.1-0.3-0.1-0.5V68.1c0-0.4,0.2-0.6,0.5-0.6h4.1c0.1,0,0.3,0.1,0.3,0.2
		c0.1,0.1,0.1,0.2,0.1,0.4v1.7c0,0.2,0.1,0.3,0.2,0.3c0.1,0,0.2-0.1,0.3-0.2c0.5-0.8,1.2-1.4,2.1-1.9c0.8-0.5,1.6-0.8,2.3-0.8
		c0.7,0,1.1,0.2,1.1,0.6v4c0,0.4-0.2,0.5-0.5,0.5c-0.8-0.2-1.6-0.3-2.3-0.3c-0.7,0-1.4,0.2-2,0.7c-0.6,0.5-0.9,1-0.9,1.6v8.4
		c0,0.3-0.1,0.5-0.2,0.6c-0.1,0.1-0.4,0.2-0.7,0.2h-3.7C209.7,83.4,209.5,83.3,209.4,83.2z"/>
	<path class="st1" d="M230.3,71.1c-0.2,0-0.4,0.1-0.4,0.4V78c0,0.6,0.2,1,0.5,1.3c0.3,0.3,0.9,0.4,1.6,0.4h1.4
		c0.1,0,0.3,0.1,0.3,0.2c0.1,0.1,0.1,0.2,0.1,0.4l0,2.2c0,0.4-0.3,0.7-0.8,0.8c-0.9,0.1-2.2,0.2-3.8,0.2c-1.4,0-2.6-0.3-3.4-1
		s-1.3-1.7-1.3-2.9v-7.8c0-0.2,0-0.3-0.1-0.4c-0.1-0.1-0.2-0.1-0.3-0.1h-1.6c-0.4,0-0.7-0.2-0.7-0.6V68c0-0.3,0.2-0.5,0.6-0.5h1.9
		c0.2,0,0.3-0.1,0.3-0.3l0.5-4.5c0-0.2,0.1-0.3,0.1-0.4s0.2-0.1,0.4-0.1h3.8c0.4,0,0.5,0.2,0.5,0.6v4.5c0,0.2,0.1,0.3,0.3,0.3h3
		c0.2,0,0.3,0,0.4,0.1s0.2,0.2,0.2,0.4v2.5c0,0.4-0.2,0.6-0.7,0.6H230.3z"/>
	<path class="st1" d="M236.6,83.2c-0.1-0.1-0.1-0.3-0.1-0.5V61.8c0-0.4,0.2-0.6,0.5-0.6h4.2c0.3,0,0.5,0.2,0.5,0.6v7.6
		c0,0.1,0,0.2,0.1,0.2c0.1,0,0.1,0,0.2-0.1c0.9-0.8,1.7-1.4,2.5-1.7c0.8-0.3,1.6-0.5,2.5-0.5c1.5,0,2.7,0.4,3.5,1.3
		c0.8,0.9,1.2,2.1,1.2,3.6v10.5c0,0.5-0.3,0.8-0.8,0.8H247c-0.2,0-0.4,0-0.5-0.2c-0.1-0.1-0.1-0.3-0.1-0.5v-10c0-0.5-0.2-1-0.5-1.3
		c-0.3-0.3-0.8-0.5-1.4-0.5c-0.5,0-1,0.1-1.5,0.4c-0.4,0.3-0.9,0.7-1.3,1.3v9.9c0,0.3-0.1,0.5-0.2,0.6c-0.1,0.1-0.4,0.2-0.7,0.2
		h-3.8C236.9,83.4,236.7,83.3,236.6,83.2z"/>
</g>
</svg>
