<svg id="Layer_1" data-name="Layer 1" xmlns="http://www.w3.org/2000/svg" xmlns:xlink="http://www.w3.org/1999/xlink" viewBox="0 0 634.25 634.27"><defs><style>.cls-1{fill:none;}.cls-2{clip-path:url(#clip-path);}.cls-3{fill:#6e2b8f;}.cls-4{fill:#faee35;}.cls-5{fill:#f78d2b;}.cls-6{fill:#108642;}.cls-7{fill:#ed2024;}.cls-8{fill:#2c60ad;}</style><clipPath id="clip-path" transform="translate(21.4 -92.3)"><path class="cls-1" d="M401.78,371.53c-1.18-1.11-1.09-3.23-.32-5.38,10.05-27.2,25.34-49.38,53.14-32.92,34.35,20.69,34.72,78.08,8.94,91.65-42.92,22.6-44.7-34.23-61.76-53.35m-66.62-9.08a6.48,6.48,0,0,0,2-3.63c-.21-30.91-16.45-60.07-48.47-45.37-45.9,24.42-43.32,77.2-16.71,90.75,33,13.83,45.27-26.91,63.21-41.75m44.25,103.91c17.71-1.83,13.72-18.25.3-22.38-12-3.57-30.19-5.92-43-5.64-22.79.51-22.22,17.89-10.38,20.83,8.91,3,14.73,4.21,22.47,14.15,7.09,13.73,3.94-4.12,30.61-7m83.52-293.87c-13.58,22.72-10.81,35.89,3.77,42,9.45,3.91,26.85,17.47,35,28.79,18.52,25.71,47-.85,58.11-22.67,8.18-16.3,4.77-39.46-16.55-59.5-19.45-18.49-58.09-25.65-80.37,11.35M380.92,505c.22-1.24-1-.93-1.46-.93-14.51.05-35.74-2.4-58.18-7.69-.6-.12-1.93-.31-1.93.65,1.59,24.84,51.9,33.64,61.57,8M551.49,335.76c32.48,107-23.65,301.51-68.51,331-43.5,28.65-105.28,36.65-85.72-43.23,29.6-139.44-75-105.71-31.87,37.3,3.55,16.51,36.07,45.58-22.53,53.24-101.24,7.36-128.45-71.26-167-157.65-2-5.8-5.43-4.45-5.43-1.61-2.57,48.48,44.9,87.09-25.09,87.09C107,639,79.72,631.27,47.8,533.09c-13.91-47.07-.67-53.67-9.4-89.54-17.77-74-7.91-183.9,99.37-240.64,10.18-5.95,11.33-2.71,8.53-.18-123.92,85.55-81,240.82-1.44,291.73,2.8,1.69,6.47,1.81,4.82-3.39-18.68-59.49-3.7-54.51-5.47-113C142.43,323.18,155.46,260,231.8,208.5c-27.27-33.12-12.38-61.26,8.73-78.72,18.79-15.46,59.76-28.07,79.85,16.61,15.57,34.42,5.79,42.11-12.26,49-7.54,2.82-21.44,11.26-29.63,18.86-15.86,14.51-21.3,13.17-36.17,4.27-75,94.68-47.89,211.87,37.28,233,8.76,2.17,15.59,6.92,20.09,18.87,20.69,41.51,37.23,2.95,66.26,22.53,40.24,17.76,33.63-17.56,55.65-17.62,86.28-.48,126.56-72.79,124.75-140.26-.14-5.43,3.12-5.81,5.14.74"/></clipPath></defs><title>Rainbow Panda</title><g class="cls-2"><rect class="cls-3" y="528.56" width="634.25" height="105.71"/><rect class="cls-4" y="211.42" width="634.25" height="105.71"/><rect class="cls-5" y="105.71" width="634.25" height="105.71"/><rect class="cls-6" y="317.13" width="634.25" height="105.71"/><rect class="cls-7" width="634.25" height="105.71"/><rect class="cls-8" y="422.84" width="634.25" height="105.71"/></g></svg>